HIERARCHY
ROOT Hips
{
	OFFSET	0.00	0.00	0.00
	CHANNELS 6 Xposition Yposition Zposition Zrotation Xrotation Yrotation
	JOINT LeftUpLeg
	{
		OFFSET	 0.126116	-0.014019	-0.065224
		CHANNELS 3 Zrotation Xrotation Yrotation
		JOINT LeftLeg
		{
			OFFSET	 0.000000	 0.000000	 0.569914
			CHANNELS 3 Zrotation Xrotation Yrotation
			JOINT LeftFoot
			{
				OFFSET	 0.000000	 0.000000	 0.544423
				CHANNELS 3 Zrotation Xrotation Yrotation
				JOINT LeftToeBase
				{
					OFFSET	 0.000000	 0.000000	 0.207117
					CHANNELS 3 Zrotation Xrotation Yrotation
					End Site
					{
						OFFSET	 0.000000	 0.000000	 0.207117
					}
				}
			}
		}
	}
	JOINT RightUpLeg
	{
		OFFSET	-0.124023	-0.008373	-0.065224
		CHANNELS 3 Zrotation Xrotation Yrotation
		JOINT RightLeg
		{
			OFFSET	 0.000000	 0.000000	 0.570047
			CHANNELS 3 Zrotation Xrotation Yrotation
			JOINT RightFoot
			{
				OFFSET	 0.000000	 0.000000	 0.544354
				CHANNELS 3 Zrotation Xrotation Yrotation
				JOINT RightToeBase
				{
					OFFSET	 0.000000	 0.000000	 0.207540
					CHANNELS 3 Zrotation Xrotation Yrotation
					End Site
					{
						OFFSET	 0.000000	 0.000000	 0.207540
					}
				}
			}
		}
	}
	JOINT Spine
	{
		OFFSET	 0.000184	-0.007763	 0.117403
		CHANNELS 3 Zrotation Xrotation Yrotation
		JOINT Spine1
		{
			OFFSET	 0.000000	 0.000000	 0.137269
			CHANNELS 3 Zrotation Xrotation Yrotation
			JOINT Spine2
			{
				OFFSET	 0.000000	 0.000000	 0.156879
				CHANNELS 3 Zrotation Xrotation Yrotation
				JOINT LeftShoulder
				{
					OFFSET	 0.080501	-0.002496	 0.160144
					CHANNELS 3 Zrotation Xrotation Yrotation
					JOINT LeftArm
					{
						OFFSET	 0.000000	 0.000000	 0.164363
						CHANNELS 3 Zrotation Xrotation Yrotation
						JOINT LeftForeArm
						{
							OFFSET	 0.000000	 0.000000	 0.364576
							CHANNELS 3 Zrotation Xrotation Yrotation
							JOINT LeftHand
							{
								OFFSET	 0.000000	 0.000000	 0.360812
								CHANNELS 3 Zrotation Xrotation Yrotation
								JOINT LeftHandIndex1
								{
									OFFSET	 0.000000	 0.000000	 0.086006
									CHANNELS 3 Zrotation Xrotation Yrotation
									JOINT LeftHandIndex2
									{
										OFFSET	 0.000000	 0.000000	 0.047236
										CHANNELS 3 Zrotation Xrotation Yrotation
										JOINT LeftHandIndex3
										{
											OFFSET	-0.004284	-0.000551	 0.038166
											CHANNELS 3 Zrotation Xrotation Yrotation
											End Site
											{
												OFFSET	-0.004284	-0.000551	 0.038166
											}
										}
									}
								}
							}
						}
					}
				}
				JOINT Neck
				{
					OFFSET	 0.000000	 0.000000	 0.176489
					CHANNELS 3 Zrotation Xrotation Yrotation
					JOINT Head
					{
						OFFSET	 0.000000	-0.001747	 0.077940
						CHANNELS 3 Zrotation Xrotation Yrotation
						End Site
						{
							OFFSET	 0.000000	-0.001747	 0.077940
						}
					}
				}
				JOINT RightShoulder
				{
					OFFSET	-0.080363	 0.000306	 0.159706
					CHANNELS 3 Zrotation Xrotation Yrotation
					JOINT RightArm
					{
						OFFSET	 0.000000	 0.000000	 0.164196
						CHANNELS 3 Zrotation Xrotation Yrotation
						JOINT RightForeArm
						{
							OFFSET	 0.000000	 0.000000	 0.365611
							CHANNELS 3 Zrotation Xrotation Yrotation
							JOINT RightHand
							{
								OFFSET	 0.000000	 0.000000	 0.360648
								CHANNELS 3 Zrotation Xrotation Yrotation
								JOINT RightHandIndex1
								{
									OFFSET	 0.000000	 0.000000	 0.069977
									CHANNELS 3 Zrotation Xrotation Yrotation
									JOINT RightHandIndex2
									{
										OFFSET	 0.000000	 0.000000	 0.052305
										CHANNELS 3 Zrotation Xrotation Yrotation
										JOINT RightHandIndex3
										{
											OFFSET	 0.009002	-0.000782	 0.042196
											CHANNELS 3 Zrotation Xrotation Yrotation
											End Site
											{
												OFFSET	 0.009002	-0.000782	 0.042196
											}
										}
									}
								}
							}
						}
					}
				}
			}
		}
	}
}
MOTION
Frames:    5
Frame Time: 0.03333334
-0.059679	-2.265669	 1.203695	 4.909842	-1.376899	-3.528627	 23.006200	-8.050881	-176.454300	 0.864691	-37.572950	 0.312188	 66.046560	 83.002580	-69.868550	-2.369881	 31.534500	-0.068101	-29.652510	-32.872710	-177.772000	 9.910054	-47.846240	 7.949934	-2.589473	 73.143050	 9.948841	 2.358705	 33.039210	 0.104137	-2.820853	 7.881877	 1.296532	 0.713530	 5.601922	 2.296171	-6.105804	-6.487475	-3.276901	-93.921810	 58.987750	 175.420700	 10.980600	 28.110870	-40.155190	 13.379430	-2.434552	-9.119294	-11.937020	-4.969288	-8.575701	-4.869087	 19.247760	-2.786510	-3.884641	 21.432950	 2.205915	-4.808264	 5.545403	 0.146972	-0.080353	-5.069796	 0.181856	-7.836938	 0.179438	 1.939860	 89.784130	 61.642880	-179.995100	-18.939870	 49.893840	 11.315070	-16.377730	-2.496634	 9.156875	 8.115602	 7.879774	-1.209541	 6.294622	 24.945040	-0.543345	 1.875656	 44.780110	-6.984339	 0.522279	 24.293690	 3.570294
-0.062747	-2.329192	 1.199356	 6.058076	-0.392045	-3.642978	 21.436360	-5.696841	-177.542100	 1.348636	-36.383890	 0.590809	 74.458920	 84.790190	-78.297650	-2.367776	 31.881990	-0.075987	-33.517310	-35.286720	 178.140000	 9.842986	-37.557430	 6.508476	-13.281330	 75.389030	 19.666780	 2.359221	 32.962650	 0.102361	-10.409080	 7.258810	 1.090961	 0.679999	 5.690813	 2.611546	-6.746615	-6.658848	-3.537277	-94.203700	 59.015610	 174.815400	 8.956634	 24.586590	-41.176560	 15.928860	-3.545386	-10.863430	-9.866748	-6.064009	-9.766671	-4.860534	 19.475440	-2.803342	-3.868567	 21.638220	 2.189582	-4.801752	 5.622216	 0.142478	-0.020777	-5.121801	 0.259654	-8.240350	 0.164783	 1.726563	 89.675230	 61.775540	 179.744000	-18.663300	 52.161190	 5.272224	-19.764790	-7.099217	 17.086280	 6.432044	 8.008450	-1.495773	 6.266515	 22.883300	-0.563528	 2.113759	 42.786540	-7.195474	 0.940333	 22.430210	 3.363865
-0.067312	-2.412346	 1.189078	 6.540829	 0.551572	-4.218062	 20.387420	-1.605326	-178.787000	 1.594422	-34.068160	 0.695647	 101.251500	 87.042490	-104.843300	-2.361533	 32.857650	-0.098361	-34.069840	-36.921680	 174.775800	 9.534712	-24.744220	 4.346758	-19.437900	 76.142540	 23.967050	 2.356514	 33.357070	 0.111536	-18.778550	 6.397036	 1.357983	 0.657993	 6.335348	 2.801391	-7.347895	-6.888697	-3.782143	-94.441250	 58.897790	 174.327600	 6.421563	 21.238560	-42.347290	 18.246330	-5.057821	-12.746350	-8.617149	-8.358399	-9.104194	-4.833593	 20.062850	-2.821828	-3.834311	 22.072150	 2.154788	-4.778250	 5.898479	 0.126230	 0.012014	-5.241387	 0.333584	-8.727452	 0.138859	 1.632132	 89.487370	 61.991390	 179.288500	-17.442960	 53.962520	 1.325500	-24.933770	-9.924772	 19.683230	 3.936253	 7.576729	-2.923467	 6.212202	 19.869290	-0.675169	 2.427305	 39.914690	-7.469450	 1.597471	 19.381000	 3.062845
-0.074234	-2.495922	 1.172945	 6.903521	 0.739041	-4.671798	 19.337380	 3.563313	 179.477200	 1.847830	-31.171840	 0.774012	 142.394300	 89.011660	-145.687800	-2.338875	 35.860040	-0.169734	-33.077030	-42.166230	 172.542300	 10.218730	-22.290240	 4.207541	-27.280320	 80.662070	 30.087380	 2.335364	 36.070690	 0.176589	-26.766080	 6.311554	 1.589049	 0.644952	 6.656435	 2.987669	-7.811184	-7.021015	-4.000369	-94.544970	 58.898410	 174.107200	 4.130941	 19.627470	-43.269990	 21.093620	-6.692109	-14.368210	-7.498425	-11.163260	-9.279175	-4.842549	 20.491150	-3.000886	-3.791026	 22.613460	 2.110822	-4.736110	 6.391333	 0.096937	 0.100510	-5.389647	 0.355218	-9.046101	 0.202723	 1.282629	 89.360280	 61.978680	 178.982200	-15.326370	 54.920690	-2.797185	-29.939810	-12.431180	 21.181710	 1.733812	 5.857118	-4.543210	 6.164282	 16.510490	-0.699814	 2.848289	 35.556290	-7.828593	 2.296990	 15.980310	 2.776263
-0.084655	-2.594493	 1.158905	 7.307180	 0.451770	-3.995447	 18.358020	 10.104640	 176.218700	 2.043932	-26.098230	 0.744159	-26.530720	 84.879640	 24.231150	-2.234215	 44.770910	-0.411831	-31.456080	-42.752320	 171.419200	 8.368343	-21.672160	 3.395106	-21.729100	 73.128640	 27.658760	 2.339699	 35.559440	 0.164069	-34.037730	 6.361514	 0.971530	 0.481299	 6.300849	 2.841278	-8.198513	-6.614516	-4.104271	-94.489170	 59.280540	 174.162700	 2.623561	 19.276890	-43.071960	 23.673640	-8.298142	-15.681020	-6.693878	-14.768230	-10.065660	-4.884788	 20.654090	-3.296251	-3.759758	 22.999730	 2.079075	-4.664696	 7.218518	 0.046881	 0.217159	-5.478868	 0.261531	-9.168272	 0.428891	 1.190549	 89.354900	 61.550740	 178.985200	-13.550610	 54.981790	-5.619140	-34.365200	-13.840080	 21.313740	-0.754442	 3.136309	-5.499333	 6.224728	 13.106100	-0.216334	 3.071222	 32.984050	-8.013908	 2.934118	 12.754390	 2.547937
